<?xml version="1.0" encoding="iso-8859-1"?>
<!-- Generator: Adobe Illustrator 16.0.0, SVG Export Plug-In . SVG Version: 6.00 Build 0)  -->
<!DOCTYPE svg PUBLIC "-//W3C//DTD SVG 1.1//EN" "http://www.w3.org/Graphics/SVG/1.1/DTD/svg11.dtd">
<svg version="1.1" id="Capa_1" xmlns="http://www.w3.org/2000/svg" xmlns:xlink="http://www.w3.org/1999/xlink" x="0px" y="0px"
	 width="98.646px" height="98.646px" viewBox="0 0 98.646 98.646" style="enable-background:new 0 0 98.646 98.646;"
	 xml:space="preserve">
<g>
	<path d="M87.179,83.426l-4.856-15.649c-0.771-2.488-2.5-4.566-4.804-5.78c-2.304-1.213-4.995-1.461-7.483-0.688l-1.12,0.349
		c0,0-3.673,1.273-7.502,2.632l-5.015-7.963l28.48-37.024c4.377-5.695,3.411-13.843-2.175-18.356
		c-0.893-0.721-2.037-1.049-3.175-0.912c-1.138,0.139-2.171,0.731-2.865,1.644L49.322,45.088L21.98,1.675
		c-0.694-0.913-1.727-1.505-2.866-1.644c-1.138-0.138-2.282,0.191-3.174,0.912c-5.586,4.514-6.552,12.661-2.174,18.356
		l28.481,37.024l-5.016,7.963c-3.829-1.357-7.502-2.632-7.502-2.632l-1.12-0.349c-2.487-0.771-5.179-0.523-7.483,0.688
		c-2.304,1.214-4.033,3.292-4.804,5.78l-4.855,15.649c-1.606,5.179,1.29,10.68,6.468,12.287l8.037,2.493
		c2.497,0.773,5.202,0.521,7.512-0.705s4.035-3.322,4.793-5.825l5.896-19.459l5.149-6.695l5.151,6.696l5.896,19.459
		c0.759,2.503,2.484,4.601,4.794,5.825c2.31,1.226,5.015,1.479,7.513,0.705l8.037-2.493C85.889,94.105,88.784,88.604,87.179,83.426z
		 M34.218,75.319L30.49,87.337c-0.231,0.744-0.749,1.365-1.436,1.729c-0.689,0.36-1.493,0.435-2.236,0.203l-4.466-1.386
		c-1.547-0.479-2.413-2.123-1.933-3.67l3.728-12.02c0.231-0.743,0.748-1.364,1.436-1.728c0.689-0.361,1.494-0.437,2.236-0.206
		l4.466,1.387C33.834,72.127,34.699,73.771,34.218,75.319z M49.322,59.849c-2.189,0-3.964-1.772-3.964-3.964
		c0-2.188,1.775-3.964,3.964-3.964s3.963,1.774,3.963,3.964C53.286,58.076,51.511,59.849,49.322,59.849z M76.292,87.884
		l-4.467,1.386c-0.743,0.23-1.546,0.157-2.235-0.203c-0.688-0.363-1.205-0.984-1.437-1.729l-3.728-12.018
		c-0.481-1.548,0.385-3.192,1.932-3.672l4.466-1.387c0.742-0.229,1.547-0.155,2.236,0.206c0.688,0.362,1.205,0.983,1.436,1.728
		l3.729,12.02C78.703,85.761,77.838,87.403,76.292,87.884z"/>
</g>
<g>
</g>
<g>
</g>
<g>
</g>
<g>
</g>
<g>
</g>
<g>
</g>
<g>
</g>
<g>
</g>
<g>
</g>
<g>
</g>
<g>
</g>
<g>
</g>
<g>
</g>
<g>
</g>
<g>
</g>
</svg>
